#include "notas.h" 
void melody_note(unsigned int frequency, double duration);
void cancion() {
melody_note(NOTE_D4 , 2400 / 8 );
melody_note(NOTE_D4 , 2400 / 8 );
melody_note(NOTE_D4 , 2400 / 8 );
melody_note(NOTE_G4 , 2400 / 2 );
melody_note(NOTE_D5 , 2400 / 2 );
melody_note(NOTE_C5 , 2400 / 8 );
melody_note(NOTE_B4 , 2400 / 8 );
melody_note(NOTE_A4 , 2400 / 8 );
melody_note(NOTE_A5 , 2400 / 2 );
melody_note(NOTE_D5 , 2400 / 4 );
melody_note(NOTE_C5 , 2400 / 8 );
melody_note(NOTE_B4 , 2400 / 8 );
melody_note(NOTE_A4 , 2400 / 8 );
melody_note(NOTE_A5 , 2400 / 2 );
melody_note(NOTE_D5 , 2400 / 4 );
melody_note(NOTE_C5 , 2400 / 8 );
melody_note(NOTE_B4 , 2400 / 8 );
melody_note(NOTE_C5 , 2400 / 8 );
melody_note(NOTE_A4 , 2400 / 2 );
melody_note(NOTE_D4 , 2400 / 8 );
melody_note(NOTE_D4 , 2400 / 8 );
melody_note(NOTE_G4 , 2400 / 2 );
melody_note(NOTE_D5 , 2400 / 2 );
melody_note(NOTE_C5 , 2400 / 8 );
melody_note(NOTE_B4 , 2400 / 8 );
melody_note(NOTE_A4 , 2400 / 8 );
melody_note(NOTE_A5 , 2400 / 2 );
melody_note(NOTE_D5 , 2400 / 4 );
melody_note(NOTE_C5 , 2400 / 8 );
melody_note(NOTE_B4 , 2400 / 8 );
melody_note(NOTE_A4 , 2400 / 8 );
melody_note(NOTE_A5 , 2400 / 2 );
melody_note(NOTE_D5 , 2400 / 4 );
melody_note(NOTE_C5 , 2400 / 8 );
melody_note(NOTE_B4 , 2400 / 8 );
melody_note(NOTE_C5 , 2400 / 8 );
melody_note(NOTE_A4 , 2400 / 2 );
melody_note(NOTE_D4 , 2400 / 8 );
melody_note(NOTE_D4 , 2400 / 8 );
melody_note(NOTE_E4 , 2400 / 4 );
melody_note(NOTE_E4 , 2400 / 8 );
melody_note(NOTE_C5 , 2400 / 8 );
melody_note(NOTE_B4 , 2400 / 8 );
melody_note(NOTE_A4 , 2400 / 8 );
melody_note(NOTE_G4 , 2400 / 8 );
melody_note(NOTE_G4 , 2400 / 8 );
melody_note(NOTE_A4 , 2400 / 8 );
melody_note(NOTE_B4 , 2400 / 8 );
melody_note(NOTE_A4 , 2400 / 4 );
melody_note(NOTE_E4 , 2400 / 8 );
melody_note(NOTE_FS4 , 2400 / 8 );
melody_note(NOTE_D4 , 2400 / 4 );
melody_note(NOTE_D4 , 2400 / 8 );
melody_note(NOTE_E4 , 2400 / 4 );
melody_note(NOTE_E4 , 2400 / 8 );
melody_note(NOTE_C5 , 2400 / 8 );
melody_note(NOTE_B4 , 2400 / 8 );
melody_note(NOTE_A4 , 2400 / 8 );
melody_note(NOTE_G4 , 2400 / 8 );
melody_note(NOTE_G4 , 2400 / 8 );
melody_note(NOTE_A4 , 2400 / 8 );
melody_note(NOTE_B4 , 2400 / 8 );
melody_note(NOTE_A4 , 2400 / 4 );
melody_note(NOTE_E4 , 2400 / 8 );
melody_note(NOTE_FS4 , 2400 / 8 );
melody_note(NOTE_D4 , 2400 / 4 );
melody_note(NOTE_D4 , 2400 / 8 );
}
