NOTE_D4 8
NOTE_D4 8
NOTE_D4 8

NOTE_G4 2
NOTE_D5 2

NOTE_C5 8
NOTE_B4 8
NOTE_A4 8
NOTE_A5 2
NOTE_D5 4

NOTE_C5 8
NOTE_B4 8
NOTE_A4 8
NOTE_A5 2
NOTE_D5 4

NOTE_C5 8
NOTE_B4 8
NOTE_C5 8
NOTE_A4 2
NOTE_D4 8
NOTE_D4 8

NOTE_G4 2
NOTE_D5 2

NOTE_C5 8
NOTE_B4 8
NOTE_A4 8
NOTE_A5 2
NOTE_D5 4

NOTE_C5 8
NOTE_B4 8
NOTE_A4 8
NOTE_A5 2
NOTE_D5 4

NOTE_C5 8
NOTE_B4 8
NOTE_C5 8
NOTE_A4 2
NOTE_D4 8
NOTE_D4 8


NOTE_E4 4
NOTE_E4 8

NOTE_C5 8
NOTE_B4 8
NOTE_A4 8
NOTE_G4 8

NOTE_G4 8
NOTE_A4 8
NOTE_B4 8
NOTE_A4 4
NOTE_E4 8
NOTE_FS4 8
NOTE_D4 4
NOTE_D4 8


NOTE_E4 4
NOTE_E4 8

NOTE_C5 8
NOTE_B4 8
NOTE_A4 8
NOTE_G4 8

NOTE_G4 8
NOTE_A4 8
NOTE_B4 8
NOTE_A4 4
NOTE_E4 8
NOTE_FS4 8
NOTE_D4 4
NOTE_D4 8


